<?xml version="1.0" standalone="no"?>
<!DOCTYPE svg PUBLIC "-//W3C//DTD SVG 20010904//EN"
 "http://www.w3.org/TR/2001/REC-SVG-20010904/DTD/svg10.dtd">
<svg version="1.0" xmlns="http://www.w3.org/2000/svg"
 width="600.000000pt" height="600.000000pt" viewBox="0 0 600.000000 600.000000"
 preserveAspectRatio="xMidYMid meet">
<metadata>
Created by potrace 1.11, written by Peter Selinger 2001-2013
</metadata>
<g transform="translate(0.000000,600.000000) scale(0.100000,-0.100000)"
fill="#000000" stroke="none">
<path d="M2455 5756 c-10 -25 -17 -49 -17 -53 0 -4 -3 -13 -8 -18 -12 -15 -50
-219 -50 -271 0 -28 -10 -66 -25 -98 l-25 -53 -53 14 c-109 30 -398 10 -550
-37 -72 -23 -125 -53 -134 -77 -9 -24 29 -51 85 -59 71 -10 115 -29 171 -70
41 -31 51 -44 51 -68 0 -49 -39 -114 -98 -164 -30 -26 -99 -87 -151 -137 -53
-49 -128 -112 -166 -140 -51 -36 -95 -82 -163 -170 -98 -127 -167 -238 -158
-254 4 -5 2 -11 -3 -13 -24 -8 -40 -222 -21 -272 15 -39 34 -32 83 32 58 74
103 116 116 108 7 -5 9 -60 4 -174 -6 -173 0 -212 32 -212 8 0 32 27 52 60 34
54 66 81 80 67 3 -3 0 -38 -7 -77 -14 -83 -8 -142 20 -188 24 -39 42 -40 68
-5 l19 26 13 -39 c7 -21 36 -91 65 -154 29 -63 65 -160 80 -214 58 -220 106
-271 255 -270 25 0 54 4 66 8 19 7 22 1 42 -76 12 -46 26 -115 33 -155 9 -63
17 -81 62 -140 64 -86 107 -154 107 -169 0 -6 -20 -14 -45 -18 -63 -8 -83 -21
-100 -64 l-15 -37 -113 -1 c-91 0 -118 -4 -146 -20 -18 -10 -43 -25 -56 -31
-12 -7 -87 -17 -166 -24 -79 -6 -172 -17 -206 -25 -34 -8 -100 -14 -147 -14
-101 0 -202 -20 -282 -55 -68 -30 -80 -40 -145 -118 l-49 -58 0 -103 c0 -90
-3 -111 -26 -160 -14 -31 -30 -86 -35 -122 -11 -82 6 -127 75 -197 57 -56 104
-85 209 -126 43 -17 106 -45 140 -63 61 -31 163 -70 347 -133 53 -17 188 -49
300 -69 290 -53 360 -70 453 -111 45 -20 120 -52 167 -71 47 -19 93 -40 103
-45 20 -11 109 -29 162 -34 17 -1 80 -16 140 -33 178 -50 234 -60 453 -87 114
-14 221 -30 237 -35 17 -5 95 -18 175 -29 80 -11 215 -29 301 -41 86 -12 201
-32 255 -46 54 -13 112 -24 129 -24 16 0 75 -7 130 -16 232 -35 439 -36 495
-2 31 19 52 106 50 201 -4 124 -3 130 34 178 86 113 72 209 -46 314 -133 118
-251 196 -358 237 -101 39 -209 95 -299 153 -77 50 -156 85 -191 85 -32 0 -33
22 -6 104 51 151 26 266 -84 388 -54 60 -60 71 -60 110 0 24 -6 66 -13 94 -14
54 -102 213 -122 220 -13 5 -12 24 11 164 21 130 20 129 49 90 32 -43 115
-112 129 -107 7 2 11 40 12 103 0 74 6 117 23 167 l22 69 32 -27 c42 -34 114
-68 128 -59 8 4 9 41 4 120 -4 63 -4 140 0 171 6 57 8 59 57 88 65 39 83 65
109 161 30 110 46 137 143 246 95 107 105 115 229 182 99 54 100 55 63 149
-13 34 -27 71 -30 82 -17 60 -38 218 -46 345 -13 211 -47 313 -166 491 -144
216 -241 288 -439 330 -55 12 -106 23 -113 25 -17 5 -8 60 21 133 l22 53 -24
19 c-29 23 -35 23 -109 0 l-60 -18 -22 96 c-64 279 -91 338 -173 377 -109 51
-184 28 -692 -206 -110 -51 -224 -97 -253 -103 -66 -14 -117 -2 -232 56 -107
53 -134 89 -153 202 -16 97 -36 110 -62 41z m966 -1087 c-11 -41 -37 -124 -59
-184 -22 -61 -47 -145 -57 -187 -17 -73 -17 -79 -1 -121 9 -25 27 -56 40 -70
l23 -25 -56 -21 c-31 -11 -83 -41 -116 -67 -103 -78 -141 -97 -184 -91 -42 5
-71 -6 -71 -28 0 -10 -11 -15 -31 -15 -25 0 -32 -6 -45 -37 -19 -43 -21 -92
-10 -238 9 -123 -10 -321 -44 -453 -25 -101 -88 -200 -164 -260 -14 -11 -19
-8 -37 20 -17 28 -20 44 -15 100 4 62 15 98 106 357 20 55 30 104 30 141 0 31
4 60 10 66 5 5 17 55 27 111 21 124 14 156 -34 161 -17 2 -37 10 -43 18 -17
20 -44 18 -65 -6 -16 -18 -26 -20 -94 -14 -59 5 -85 3 -115 -10 -43 -18 -238
-76 -255 -76 -16 0 24 96 66 158 l35 52 58 0 c55 0 59 2 95 41 59 66 69 98 84
294 10 127 36 200 85 241 29 25 35 26 111 21 44 -3 115 -17 158 -31 88 -29
134 -32 228 -12 94 20 129 42 249 149 58 52 106 94 108 92 1 -1 -7 -35 -17
-76z m321 -740 c62 -22 133 -47 157 -56 l43 -16 -6 -71 c-25 -267 -109 -414
-311 -546 -122 -79 -123 -97 -10 -123 l59 -13 -65 -70 c-36 -38 -74 -82 -84
-97 -17 -26 -17 -29 -2 -45 15 -15 22 -14 89 16 39 18 72 31 73 29 1 -1 -5
-35 -13 -75 -16 -83 -9 -102 40 -102 44 0 78 29 168 142 106 132 118 154 189
340 33 87 73 177 89 200 16 24 42 67 57 96 37 69 92 111 163 128 61 15 130 18
156 8 24 -9 19 -55 -12 -115 -59 -112 -95 -171 -135 -224 -23 -29 -83 -107
-133 -172 -113 -146 -122 -154 -179 -160 -36 -5 -46 -10 -50 -27 -5 -19 -57
-301 -91 -491 -8 -44 -14 -92 -14 -107 0 -22 -5 -28 -22 -28 -13 0 -39 -3 -59
-6 l-37 -6 23 93 c12 52 34 129 49 171 14 42 26 90 26 106 0 30 -18 46 -38 33
-14 -8 -53 -131 -98 -311 -32 -125 -38 -138 -74 -171 -45 -41 -152 -85 -230
-95 -82 -9 -329 -79 -406 -114 -96 -43 -189 -70 -244 -70 -67 0 -216 37 -271
67 -60 32 -115 99 -145 175 -29 74 -66 138 -117 203 -50 62 -63 94 -72 170 -4
33 -21 104 -37 158 -16 54 -31 118 -35 142 -7 54 -25 74 -49 54 -12 -10 -15
-25 -11 -62 5 -61 -11 -72 -91 -62 -76 9 -113 48 -143 148 -12 39 -32 106 -44
147 -13 41 -44 120 -70 175 -25 55 -52 119 -58 143 -10 38 -9 47 13 88 14 25
32 52 41 60 15 13 20 10 51 -33 37 -50 69 -137 88 -238 21 -108 43 -166 73
-191 35 -29 58 -28 72 4 5 12 13 22 17 22 4 0 28 -16 54 -35 50 -39 77 -48
120 -43 49 5 45 46 -16 134 -59 85 -88 146 -98 207 l-8 42 71 31 c161 71 355
124 457 124 58 0 68 -14 68 -98 0 -42 -10 -90 -36 -163 -124 -362 -130 -425
-52 -515 57 -65 136 -55 213 27 32 34 50 47 58 41 7 -5 40 -19 75 -31 78 -28
116 -22 143 22 36 60 26 87 -62 181 -90 95 -107 195 -65 386 9 41 15 90 14
109 l-3 36 115 40 c63 23 131 49 150 59 76 40 210 137 280 203 29 27 93 59
122 62 4 1 58 -17 120 -40z m190 -1767 c19 -41 19 -51 7 -170 l-12 -125 -55
-61 c-85 -94 -125 -128 -218 -182 -140 -81 -179 -108 -182 -128 -7 -36 21 -36
88 0 36 19 99 46 140 61 128 44 272 112 328 155 43 32 56 38 64 27 13 -19 2
-305 -13 -349 -18 -51 -64 -130 -97 -166 -26 -28 -38 -32 -143 -48 -63 -10
-139 -24 -169 -31 -30 -7 -84 -16 -120 -20 -36 -4 -101 -15 -146 -25 -45 -10
-105 -22 -135 -26 -58 -7 -309 -68 -347 -84 -19 -8 -36 -1 -105 42 -45 28
-126 82 -179 119 l-97 69 23 58 c23 57 111 176 178 238 61 58 212 156 328 215
189 94 245 119 380 169 117 43 249 142 306 230 15 25 44 64 63 88 l34 43 30
-28 c16 -15 38 -48 49 -71z m-271 -35 c-56 -81 -108 -114 -315 -197 -149 -59
-298 -133 -408 -201 -44 -27 -83 -49 -86 -49 -9 0 -52 47 -80 87 -22 31 -42
81 -55 133 l-6 25 73 -3 c83 -5 147 11 267 63 107 47 267 93 381 111 59 9 127
27 175 47 43 19 80 32 81 31 2 -1 -10 -23 -27 -47z m-1294 4 c12 -21 47 -60
78 -87 137 -119 179 -162 212 -222 19 -34 55 -89 79 -122 24 -33 44 -63 44
-68 0 -4 -41 -34 -91 -67 -50 -33 -129 -96 -174 -140 l-83 -80 -39 35 c-22 19
-59 64 -83 99 -23 35 -57 80 -75 100 -18 20 -49 63 -70 96 -42 66 -86 123
-154 200 -24 28 -50 64 -59 82 -13 28 -13 33 1 48 38 37 197 64 197 33 0 -23
85 -221 114 -266 28 -45 50 -51 70 -20 8 13 2 44 -29 135 -21 65 -41 141 -43
170 -4 48 -2 55 26 83 17 16 36 30 44 30 7 0 23 -17 35 -39z"/>
<path d="M3406 3664 c-123 -45 -270 -229 -250 -312 31 -123 182 -126 349 -7
118 84 200 203 193 277 -2 28 -9 35 -38 45 -49 17 -206 15 -254 -3z m234 -60
c0 -35 -47 -108 -103 -160 -70 -65 -143 -109 -209 -125 -87 -20 -126 6 -107
74 l10 36 46 -24 c114 -61 189 0 183 149 -2 28 -2 54 -1 59 0 4 42 7 91 7 77
0 90 -2 90 -16z"/>
<path d="M4389 3630 c-93 -49 -193 -196 -265 -386 -27 -73 -25 -97 7 -92 15 2
30 25 59 95 85 203 143 285 240 336 29 15 45 30 45 43 0 26 -41 29 -86 4z"/>
<path d="M1727 3513 c-15 -15 -5 -82 27 -177 19 -56 42 -127 50 -159 16 -66
87 -191 113 -202 45 -18 83 -22 99 -10 23 16 11 45 -18 45 -13 0 -33 7 -45 15
-33 23 -80 113 -97 185 -8 36 -29 103 -45 150 -17 47 -31 95 -31 107 0 34 -11
53 -29 53 -10 0 -21 -3 -24 -7z"/>
<path d="M4342 3469 c-9 -17 -27 -44 -39 -59 -32 -39 -30 -62 4 -58 59 7 128
148 73 148 -13 0 -27 -12 -38 -31z"/>
<path d="M2274 3476 c-108 -20 -142 -46 -151 -114 -7 -50 13 -72 91 -101 44
-16 79 -21 158 -21 89 0 106 3 148 26 44 24 70 56 70 88 0 35 -137 120 -210
130 -19 3 -67 -1 -106 -8z m153 -68 c15 -7 45 -23 66 -36 37 -23 38 -24 21
-43 -9 -10 -33 -23 -53 -28 -52 -14 -223 1 -255 23 -28 18 -29 20 -17 51 7 18
9 17 24 -11 36 -69 127 -61 162 14 11 23 21 42 22 42 1 0 15 -5 30 -12z"/>
<path d="M2927 2738 c-42 -14 -66 -31 -89 -59 -35 -44 -52 -48 -83 -19 -18 17
-27 19 -48 11 -14 -6 -33 -20 -41 -33 -23 -37 -69 -176 -63 -192 8 -21 40 -23
144 -9 115 15 137 25 276 116 110 73 114 74 192 81 115 10 135 45 50 86 -89
43 -243 51 -338 18z m203 -42 c0 -2 -31 -14 -70 -25 -44 -14 -100 -42 -151
-77 -90 -62 -144 -88 -202 -98 l-37 -7 19 52 c11 28 22 53 24 55 2 2 17 -1 33
-8 51 -19 100 -3 131 43 19 30 37 43 72 53 41 13 181 22 181 12z"/>
<path d="M3132 2577 c-27 -46 -130 -111 -226 -143 -63 -21 -91 -26 -141 -22
-70 6 -89 0 -83 -28 6 -35 127 -45 219 -18 118 35 252 123 285 186 31 60 -19
83 -54 25z"/>
<path d="M3751 2004 c-133 -121 -207 -162 -491 -274 -131 -51 -145 -59 -145
-81 0 -14 7 -25 17 -27 35 -7 405 150 506 214 100 64 245 198 240 223 -7 37
-44 21 -127 -55z"/>
<path d="M3774 1854 c-17 -21 -73 -62 -144 -104 -135 -80 -151 -94 -128 -117
14 -14 28 -8 148 63 145 86 199 139 179 175 -14 27 -24 24 -55 -17z"/>
<path d="M3148 1537 c-163 -109 -228 -170 -314 -294 -61 -87 -73 -123 -39
-123 7 0 52 51 99 114 92 122 147 171 317 281 103 65 133 91 124 105 -14 23
-58 4 -187 -83z"/>
<path d="M4022 1576 c-11 -24 -53 -78 -93 -120 -66 -70 -71 -78 -56 -93 14
-14 19 -13 54 16 62 51 142 152 149 187 12 67 -26 74 -54 10z"/>
<path d="M3786 1515 c-114 -40 -150 -60 -142 -81 3 -8 2 -13 -2 -10 -4 2 -36
-1 -72 -7 -54 -10 -66 -16 -68 -33 -4 -27 18 -36 60 -23 18 5 50 9 71 9 30 0
39 5 46 23 7 17 32 30 122 59 63 20 123 38 134 40 14 2 20 11 20 28 0 22 -5
25 -35 27 -19 1 -79 -13 -134 -32z"/>
<path d="M2913 1487 c-16 -12 -69 -56 -117 -97 -63 -54 -86 -80 -84 -95 6 -40
37 -26 145 66 119 101 123 106 116 125 -8 23 -31 23 -60 1z"/>
<path d="M3199 1390 c-91 -73 -180 -161 -176 -173 2 -6 10 -15 19 -21 13 -8
31 4 89 55 41 36 96 83 122 104 34 27 47 44 45 59 -5 36 -33 29 -99 -24z"/>
<path d="M3954 1354 c-44 -31 -143 -56 -274 -70 -166 -17 -280 -40 -300 -59
-13 -13 -12 -17 1 -30 14 -14 28 -14 140 4 68 11 160 23 204 27 144 12 300 74
300 119 0 25 -41 31 -71 9z"/>
<path d="M3270 1328 c-147 -127 -181 -161 -178 -181 5 -34 26 -31 63 9 19 20
49 47 66 60 46 34 119 104 119 114 0 5 -8 14 -18 19 -13 7 -25 2 -52 -21z"/>
<path d="M2354 1986 c-9 -23 22 -106 68 -182 23 -38 56 -103 73 -144 24 -58
36 -76 53 -78 13 -2 25 3 28 12 8 21 -38 139 -83 211 -20 32 -49 88 -63 124
-20 49 -32 67 -48 69 -13 2 -25 -3 -28 -12z"/>
<path d="M2113 1853 c-10 -26 31 -88 58 -88 32 0 35 26 7 69 -24 38 -54 47
-65 19z"/>
<path d="M2563 1844 c-3 -10 9 -48 30 -90 28 -56 42 -74 57 -74 32 0 35 28 9
79 -51 98 -81 124 -96 85z"/>
<path d="M2354 1665 c-13 -34 72 -155 108 -155 30 0 33 29 6 58 -14 15 -37 46
-52 70 -27 43 -52 54 -62 27z"/>
<path d="M2298 1599 c-26 -15 -22 -28 31 -94 49 -62 83 -79 95 -49 8 20 -6 43
-65 106 -36 39 -47 46 -61 37z"/>
</g>
</svg>
